<?xml version="1.0" standalone="no"?>
<!DOCTYPE svg PUBLIC "-//W3C//DTD SVG 20010904//EN"
 "http://www.w3.org/TR/2001/REC-SVG-20010904/DTD/svg10.dtd">
<svg version="1.0" xmlns="http://www.w3.org/2000/svg"
 width="1584.000000pt" height="1584.000000pt" viewBox="0 0 1584.000000 1584.000000"
 preserveAspectRatio="xMidYMid meet">
<metadata>
Created by potrace 1.11, written by Peter Selinger 2001-2013
</metadata>
<g transform="translate(0.000000,1584.000000) scale(0.100000,-0.100000)"
fill="#000000" stroke="none">
<path d="M7887 15704 c-1 -2 -57 -6 -122 -9 -212 -11 -301 -18 -370 -31 -37
-7 -76 -12 -135 -19 -79 -10 -156 -24 -265 -50 -38 -10 -74 -18 -80 -19 -5 -2
-28 -8 -50 -14 -22 -6 -51 -13 -65 -16 -70 -13 -366 -110 -445 -146 -11 -5
-31 -12 -44 -16 -14 -3 -54 -20 -90 -37 -37 -17 -68 -31 -71 -31 -5 -1 -73
-33 -170 -80 -25 -11 -47 -23 -50 -27 -3 -3 -21 -11 -40 -19 -19 -7 -42 -18
-50 -25 -8 -6 -28 -17 -45 -25 -16 -8 -34 -19 -40 -23 -5 -4 -69 -43 -142 -86
-72 -43 -137 -84 -145 -90 -7 -7 -42 -33 -78 -58 -36 -26 -69 -51 -75 -55 -5
-5 -28 -22 -50 -38 -57 -42 -55 -41 -110 -84 -54 -43 -53 -42 -137 -119 -31
-29 -96 -88 -144 -132 -68 -63 -217 -225 -379 -412 -22 -26 -34 -42 -141 -193
-109 -152 -204 -295 -204 -306 0 -3 -16 -29 -35 -59 -19 -30 -32 -55 -29 -55
3 0 -3 -12 -14 -27 -57 -81 -206 -385 -194 -397 3 -3 0 -6 -6 -6 -7 0 -12 -6
-12 -12 -1 -7 -9 -31 -20 -53 -11 -22 -19 -46 -20 -52 0 -7 -4 -13 -10 -13 -5
0 -10 -6 -10 -12 0 -7 -11 -40 -24 -73 -26 -63 -38 -95 -41 -107 -2 -5 -3 -9
-5 -10 -1 -2 -3 -10 -5 -18 -1 -8 -22 -73 -46 -145 -24 -71 -43 -132 -44 -135
0 -3 -3 -10 -7 -16 -4 -6 -10 -24 -13 -40 -8 -39 -13 -59 -15 -59 -1 0 -3 -8
-5 -18 -2 -9 -20 -90 -41 -180 -20 -89 -38 -171 -40 -182 -1 -11 -3 -21 -4
-22 -6 -7 -24 -106 -22 -115 1 -5 -1 -8 -6 -8 -4 0 -7 -15 -8 -32 0 -35 -12
-141 -19 -179 -3 -13 -7 -41 -10 -64 -3 -22 -8 -47 -10 -55 -2 -8 -7 -49 -10
-90 -3 -41 -8 -91 -10 -110 -4 -37 -14 -211 -21 -370 -6 -123 -5 -400 1 -515
2 -49 7 -166 10 -260 3 -93 7 -215 10 -270 2 -55 7 -163 10 -240 3 -77 7 -156
9 -175 3 -19 8 -66 12 -105 5 -38 8 -85 9 -102 0 -18 2 -33 5 -33 3 0 7 -21 8
-47 1 -27 4 -59 7 -73 3 -14 7 -50 10 -80 3 -30 7 -71 10 -90 3 -19 8 -62 11
-95 3 -33 7 -73 9 -90 2 -16 6 -52 9 -80 3 -27 8 -70 12 -95 3 -25 7 -61 9
-80 2 -19 7 -51 10 -70 4 -19 8 -51 9 -71 2 -20 5 -40 8 -45 3 -5 9 -31 12
-57 4 -27 10 -59 12 -70 3 -12 7 -35 10 -52 2 -16 7 -41 11 -55 3 -14 7 -32 8
-40 5 -38 47 -259 56 -295 5 -22 11 -59 14 -82 2 -24 6 -46 8 -51 5 -6 14 -54
23 -117 1 -11 3 -20 4 -20 2 0 6 -20 13 -65 4 -20 24 -103 45 -185 61 -232 54
-205 71 -275 7 -30 15 -62 17 -70 3 -8 6 -17 6 -20 0 -3 7 -27 14 -55 8 -27
18 -66 23 -85 6 -19 17 -60 25 -90 9 -30 17 -67 20 -81 2 -14 18 -72 36 -130
17 -57 33 -108 34 -114 2 -5 6 -17 9 -25 8 -20 121 -363 123 -372 1 -5 3 -10
4 -13 1 -3 4 -9 5 -15 1 -5 4 -12 5 -15 1 -3 3 -8 4 -12 7 -27 100 -301 113
-333 3 -8 7 -18 8 -22 2 -5 4 -10 5 -13 1 -3 3 -8 5 -12 1 -5 7 -21 13 -36 7
-16 12 -31 12 -34 0 -3 6 -19 14 -36 8 -18 22 -52 31 -77 9 -25 22 -56 28 -70
5 -14 11 -29 13 -35 1 -5 20 -53 42 -105 56 -137 55 -134 54 -143 -1 -4 2 -7
8 -7 6 0 9 -3 8 -7 -3 -9 48 -143 69 -183 7 -14 13 -29 13 -34 0 -6 13 -37 29
-70 49 -100 121 -256 121 -260 0 -19 395 -812 442 -886 8 -14 33 -59 55 -100
57 -109 135 -244 224 -393 44 -72 79 -134 79 -138 0 -4 3 -9 8 -11 4 -1 16
-19 26 -38 36 -65 191 -311 207 -328 8 -9 16 -20 17 -25 1 -4 29 -48 62 -97
33 -49 60 -94 60 -100 0 -5 4 -10 8 -10 4 0 23 -25 41 -55 18 -30 38 -55 43
-55 5 0 6 -4 3 -10 -3 -5 -1 -10 4 -10 6 0 11 -4 11 -9 0 -10 141 -211 173
-245 9 -11 17 -26 17 -33 0 -8 5 -11 10 -8 6 3 10 1 10 -5 0 -9 72 -113 90
-130 3 -3 30 -39 60 -80 30 -41 60 -82 67 -90 7 -8 62 -78 123 -155 119 -150
173 -216 205 -251 11 -12 36 -42 55 -65 19 -24 45 -53 58 -66 13 -13 21 -23
18 -23 -2 0 17 -22 42 -49 26 -27 79 -84 117 -127 140 -155 282 -292 358 -342
42 -29 77 -50 77 -47 0 3 10 -1 22 -9 28 -18 170 -66 218 -74 19 -3 54 -6 78
-7 23 0 42 -2 42 -5 0 -3 20 -5 45 -6 25 0 45 2 45 5 0 3 26 7 58 7 49 2 107
9 107 14 0 1 8 3 17 5 33 6 93 28 106 38 6 5 12 7 12 4 0 -10 136 64 179 98
91 73 315 299 463 468 34 40 72 81 83 92 11 11 36 41 56 65 20 25 45 55 55 67
11 12 28 32 38 45 11 12 31 37 45 53 14 17 40 48 56 69 17 21 35 44 40 50 6 6
28 34 50 61 22 28 44 55 50 62 12 15 18 22 80 103 28 36 75 99 105 140 29 41
59 80 64 87 28 32 36 43 36 49 0 3 11 20 25 38 14 17 29 36 33 41 4 6 19 27
35 47 15 20 27 39 27 43 0 3 5 11 11 18 5 7 37 50 69 97 33 47 63 90 67 95 5
6 14 22 22 38 8 15 18 27 23 27 4 0 8 5 8 11 0 6 6 17 13 24 29 33 37 45 32
45 -4 0 8 18 25 40 17 22 28 40 23 40 -4 0 -3 4 3 8 14 9 154 231 154 243 0 5
5 9 10 9 6 0 10 5 10 10 0 9 25 51 140 240 21 34 128 224 193 340 38 69 81
145 95 170 15 25 27 51 28 59 2 8 6 17 11 20 9 7 26 39 145 273 43 87 78 159
76 160 -2 2 7 17 20 35 12 17 22 33 22 36 0 3 22 51 49 108 88 189 113 243
173 379 33 74 61 144 64 155 2 11 8 21 14 23 5 2 10 10 10 18 0 8 9 36 21 62
11 26 27 63 35 82 9 19 19 44 24 55 5 11 32 81 60 155 28 74 57 149 63 165 6
17 12 32 13 35 0 3 6 19 13 35 21 49 83 219 86 237 4 17 100 309 112 338 3 8
8 24 10 35 1 11 7 29 12 40 10 22 100 297 106 323 2 10 9 33 15 52 6 19 24 87
41 150 16 63 31 122 33 130 14 50 38 148 41 165 2 11 4 20 5 20 1 0 3 7 5 15
2 8 9 33 15 55 6 22 12 49 14 60 2 11 4 20 5 20 2 0 4 7 6 15 2 8 8 35 14 60
7 25 14 56 17 70 2 14 7 32 10 40 15 39 54 210 70 308 2 15 9 50 14 77 5 28
12 66 15 85 3 19 8 44 12 55 3 11 7 31 9 45 5 44 12 84 20 115 4 16 8 41 10
55 1 14 3 25 4 25 1 0 3 11 5 25 3 26 20 115 30 160 10 45 23 117 29 155 1 11
6 39 10 62 4 23 9 57 11 75 2 18 7 53 9 78 3 25 8 70 11 100 2 30 7 65 9 77 3
12 7 55 10 95 4 40 9 84 12 98 3 14 7 48 8 75 3 45 8 93 21 195 3 19 7 53 9
75 3 22 8 65 12 95 9 77 12 112 19 220 3 52 7 105 10 118 3 12 1 22 -5 22 -6
0 -8 5 -4 12 7 11 11 92 17 328 2 52 6 101 10 108 5 7 3 12 -3 12 -6 0 -8 4
-5 10 22 36 23 983 1 1019 -4 5 -2 12 4 16 6 4 7 12 3 18 -4 6 -8 34 -10 62
-5 90 -10 150 -17 175 -3 14 -8 48 -10 75 -2 28 -5 50 -6 50 -1 0 -3 14 -4 30
-4 37 -15 129 -21 170 -2 17 -6 46 -9 65 -2 20 -7 47 -10 60 -3 14 -8 36 -11
50 -3 14 -9 45 -15 70 -6 25 -12 56 -15 70 -2 14 -9 45 -16 70 -6 25 -12 52
-13 60 -1 8 -5 26 -9 40 -4 14 -9 36 -12 50 -17 84 -51 204 -75 265 -6 17 -14
41 -17 55 -2 13 -9 30 -15 37 -6 7 -8 13 -5 13 3 0 -6 33 -19 73 -14 39 -27
77 -28 84 -1 7 -5 16 -9 19 -4 4 -7 14 -7 22 0 18 -110 273 -210 487 -16 33
-51 100 -79 148 -28 49 -51 93 -51 98 0 5 -3 9 -8 9 -4 0 -14 15 -21 33 -8 17
-26 50 -39 72 -42 66 -116 180 -122 185 -3 3 -20 28 -39 55 -52 76 -196 267
-222 295 -13 15 -55 62 -94 105 -122 139 -256 269 -480 469 -22 19 -43 36 -46
36 -3 0 -17 9 -30 21 -13 12 -44 35 -69 52 -25 17 -47 33 -50 37 -19 23 -280
197 -316 210 -13 5 -24 13 -24 18 0 5 -6 9 -13 9 -6 0 -32 12 -56 27 -109 69
-441 234 -441 220 0 -3 -13 4 -30 16 -16 12 -30 19 -30 15 0 -3 -13 1 -28 9
-33 17 -435 153 -472 160 -14 2 -81 18 -150 35 -69 17 -135 33 -148 36 -12 2
-30 6 -40 9 -9 3 -33 8 -52 10 -19 3 -51 7 -70 10 -49 8 -116 16 -175 22 -50
4 -90 11 -90 14 0 3 -92 8 -270 15 -88 3 -186 7 -218 9 -31 1 -59 1 -60 0z
m258 -858 c116 -5 144 -7 250 -20 28 -4 68 -9 90 -11 22 -3 56 -8 75 -10 98
-15 94 -14 183 -36 64 -16 121 -29 147 -35 45 -9 164 -45 215 -64 87 -33 95
-35 130 -44 29 -6 59 -19 155 -63 47 -22 114 -53 150 -69 119 -53 428 -240
515 -312 6 -4 33 -23 60 -42 28 -18 52 -36 55 -40 3 -3 19 -16 35 -29 92 -70
291 -263 395 -381 36 -40 82 -92 102 -114 21 -23 38 -44 38 -48 0 -4 6 -13 13
-20 7 -7 24 -29 37 -48 13 -19 28 -39 33 -45 18 -22 123 -173 137 -196 116
-195 260 -464 260 -487 0 -5 14 -37 31 -72 67 -140 194 -511 230 -675 11 -49
22 -99 24 -110 13 -55 22 -98 29 -135 1 -8 5 -24 9 -35 3 -11 9 -33 12 -50 2
-16 7 -39 9 -51 2 -12 7 -45 11 -75 3 -30 8 -70 10 -89 3 -19 7 -53 10 -75 2
-22 7 -58 10 -80 3 -22 7 -58 10 -80 3 -22 8 -56 10 -75 3 -19 7 -108 10 -197
2 -89 5 -166 8 -170 5 -9 0 -377 -7 -538 -3 -60 -7 -182 -10 -270 -12 -357
-22 -559 -31 -599 -2 -11 -7 -52 -10 -91 -4 -38 -8 -79 -10 -90 -3 -11 -7 -42
-9 -70 -3 -27 -8 -77 -12 -110 -3 -33 -8 -76 -9 -95 -2 -19 -4 -35 -5 -35 -1
0 -4 -22 -5 -50 -2 -27 -4 -50 -5 -50 -1 0 -3 -16 -5 -35 -1 -19 -6 -60 -9
-90 -4 -30 -9 -75 -11 -100 -15 -129 -18 -154 -30 -215 -8 -40 -9 -47 -21
-115 -4 -19 -9 -44 -11 -55 -14 -68 -21 -109 -29 -165 -3 -25 -8 -47 -9 -50
-2 -3 -11 -46 -19 -95 -9 -50 -18 -101 -21 -115 -9 -40 -26 -132 -31 -170 -3
-19 -10 -52 -15 -73 -6 -21 -12 -54 -15 -74 -2 -20 -9 -42 -14 -48 -5 -7 -8
-14 -5 -16 2 -3 -3 -29 -11 -59 -8 -30 -17 -62 -19 -70 -5 -21 -23 -93 -36
-142 -6 -24 -12 -47 -13 -53 -1 -5 -5 -19 -9 -30 -3 -11 -8 -31 -11 -45 -3
-14 -17 -70 -32 -125 -41 -158 -52 -204 -46 -210 3 -3 1 -5 -5 -5 -6 0 -13
-17 -17 -38 -6 -39 -79 -280 -96 -317 -5 -11 -23 -67 -41 -125 -17 -58 -36
-111 -42 -117 -5 -7 -6 -13 -3 -13 4 0 2 -8 -3 -18 -6 -11 -12 -30 -15 -43 -3
-13 -14 -48 -25 -76 -10 -29 -17 -53 -14 -53 3 0 0 -7 -7 -15 -7 -8 -9 -15 -5
-15 4 0 3 -6 -2 -12 -6 -7 -13 -26 -17 -43 -7 -28 -57 -165 -77 -210 -5 -11
-27 -67 -48 -125 -22 -58 -46 -121 -54 -140 -28 -70 -30 -75 -31 -82 -1 -3 -4
-10 -8 -14 -5 -4 -8 -16 -8 -26 0 -10 -4 -18 -10 -18 -5 0 -10 -6 -10 -13 0
-15 -95 -244 -120 -289 -6 -10 -10 -25 -10 -33 0 -8 -4 -15 -10 -15 -5 0 -10
-6 -10 -14 0 -38 -368 -778 -535 -1076 -29 -52 -63 -113 -75 -135 -12 -22 -38
-67 -57 -100 -19 -33 -38 -67 -43 -75 -68 -118 -231 -384 -248 -405 -5 -6 -11
-15 -13 -21 -12 -29 -123 -194 -131 -194 -5 0 -6 -4 -3 -10 3 -5 1 -10 -4 -10
-6 0 -11 -4 -11 -9 0 -10 -169 -261 -222 -329 -18 -23 -35 -47 -37 -54 -2 -7
-13 -21 -24 -33 -10 -11 -31 -38 -44 -60 -14 -22 -32 -47 -40 -55 -7 -8 -45
-58 -83 -110 -71 -96 -117 -155 -135 -174 -6 -6 -26 -31 -45 -56 -19 -25 -48
-61 -65 -81 -16 -19 -39 -47 -50 -60 -68 -84 -163 -195 -192 -225 -13 -13 -23
-26 -23 -29 0 -3 -18 -23 -40 -45 -22 -22 -40 -42 -40 -44 0 -3 -36 -42 -80
-87 -44 -44 -80 -83 -80 -85 0 -12 -137 -134 -151 -134 -14 0 -140 121 -222
213 -14 16 -53 59 -87 97 -34 38 -70 78 -79 89 -52 61 -101 119 -117 138 -33
37 -47 55 -137 168 -48 61 -99 122 -112 138 -14 15 -25 31 -25 36 0 4 -12 21
-27 37 -16 17 -44 52 -63 79 -19 28 -40 56 -47 63 -7 7 -20 26 -30 42 -9 17
-21 30 -25 30 -4 0 -8 7 -8 15 0 8 -4 15 -10 15 -5 0 -10 6 -10 13 0 7 -9 19
-20 27 -11 8 -20 20 -20 27 0 7 -9 18 -20 25 -11 7 -20 17 -20 21 0 11 -82
131 -92 135 -5 2 -8 10 -8 18 0 8 -4 14 -8 14 -4 0 -23 25 -41 55 -18 30 -38
55 -44 55 -6 0 -8 3 -4 6 3 3 -37 69 -89 145 -52 77 -94 144 -94 149 0 6 -4
10 -10 10 -5 0 -10 4 -10 9 0 5 -17 35 -39 67 -21 33 -49 79 -62 104 -13 25
-27 47 -31 50 -4 3 -13 17 -20 30 -33 63 -164 275 -170 278 -5 2 -8 8 -8 14 0
5 -18 40 -39 76 -71 122 -171 307 -238 442 -21 41 -40 77 -43 80 -3 3 -34 66
-70 140 -36 74 -68 137 -72 138 -5 2 -8 8 -8 13 0 5 -19 49 -42 97 -23 48 -42
89 -43 92 -1 3 -13 30 -27 60 -77 164 -111 238 -123 265 -7 17 -25 56 -39 88
-14 32 -26 59 -26 62 0 2 -5 16 -12 32 -6 15 -12 33 -13 38 -2 6 -11 31 -22
55 -29 65 -95 228 -146 360 -54 138 -60 154 -61 160 -1 4 -21 59 -44 120 -3 8
-6 17 -7 20 -1 3 -4 12 -8 20 -3 8 -40 121 -82 250 -42 129 -79 242 -82 250
-3 8 -7 20 -9 25 -1 6 -18 57 -37 115 -19 58 -38 119 -42 135 -5 17 -10 36
-12 43 -1 6 -4 18 -6 25 -2 6 -6 21 -10 32 -3 11 -9 31 -11 45 -3 14 -13 54
-22 90 -9 36 -17 70 -19 75 -1 6 -4 17 -8 25 -3 8 -12 44 -21 80 -9 36 -19 73
-21 83 -3 9 -7 26 -10 38 -2 11 -7 29 -10 39 -3 10 -8 28 -10 39 -3 12 -7 30
-9 41 -3 11 -17 64 -31 117 -26 94 -33 123 -40 168 -2 11 -8 44 -14 74 -6 29
-9 57 -6 61 3 5 1 11 -4 14 -4 3 -9 16 -9 28 -1 23 -9 63 -12 63 -1 0 -3 11
-5 25 -1 14 -12 75 -23 135 -28 144 -30 155 -37 185 -3 14 -7 39 -10 55 -3 17
-9 53 -14 80 -5 28 -13 67 -16 89 -4 21 -9 48 -11 60 -10 51 -21 131 -29 221
-3 33 -8 78 -12 100 -5 41 -7 52 -17 145 -3 30 -8 75 -11 100 -3 25 -7 68 -10
95 -3 28 -7 66 -9 85 -3 19 -7 55 -10 80 -27 220 -29 243 -40 575 -3 94 -8
217 -11 275 -11 252 -17 430 -16 490 0 60 0 111 0 135 0 6 2 51 5 100 3 50 8
137 11 195 5 100 12 180 20 245 8 63 17 131 21 155 2 14 6 45 9 70 3 25 9 56
12 70 3 14 5 33 4 43 -1 10 2 32 8 50 6 18 12 43 15 57 2 14 10 48 16 75 6 28
14 61 16 75 3 14 9 40 15 57 6 18 8 37 4 43 -3 5 -2 10 3 10 5 0 9 6 9 13 2
38 34 157 43 157 4 0 7 6 6 13 -1 11 44 153 64 202 4 11 13 40 20 65 11 42
102 255 156 364 13 28 24 53 24 57 0 10 222 394 240 416 8 10 48 65 89 123 74
104 142 191 171 220 9 8 40 44 70 80 68 79 158 170 274 275 49 44 94 85 100
90 6 6 38 31 71 55 33 25 62 48 63 53 2 4 8 7 14 7 5 0 15 6 23 13 25 24 55
47 61 47 3 0 23 13 43 28 48 39 273 173 352 212 35 18 89 45 120 60 32 16 60
26 63 23 3 -4 6 -1 6 5 0 7 9 12 20 12 11 0 20 4 20 9 0 7 29 19 60 25 3 1 10
5 17 9 13 8 88 36 113 42 8 2 40 13 70 25 56 22 195 65 240 74 22 5 57 14 123
31 45 13 63 17 77 19 8 2 29 6 45 9 36 8 72 14 140 23 28 3 52 7 55 9 5 3 105
15 172 20 22 2 42 5 45 8 2 3 18 1 34 -3 16 -5 29 -5 29 -2 0 4 34 8 77 10 42
1 78 3 80 5 2 2 31 3 66 1 34 -2 116 -6 182 -8z"/>
<path d="M7755 13002 c-2 -2 -43 -5 -91 -7 -86 -4 -146 -10 -209 -21 -16 -3
-41 -7 -55 -9 -162 -21 -411 -87 -560 -148 -14 -5 -30 -11 -35 -12 -6 -2 -32
-12 -57 -24 -26 -11 -52 -21 -57 -21 -6 0 -11 -4 -11 -10 0 -5 -6 -10 -13 -10
-7 0 -47 -18 -89 -39 -221 -113 -428 -256 -606 -419 -118 -108 -123 -113 -161
-157 -19 -22 -55 -63 -82 -92 -26 -29 -74 -87 -105 -130 -32 -43 -61 -80 -64
-83 -3 -3 -10 -14 -17 -25 -7 -11 -37 -60 -68 -109 -30 -48 -55 -92 -55 -96 0
-5 -4 -10 -8 -12 -20 -7 -200 -409 -217 -483 -1 -5 -5 -17 -8 -25 -9 -21 -55
-190 -61 -220 -3 -14 -10 -50 -16 -80 -12 -62 -23 -129 -23 -147 0 -7 -3 -13
-6 -13 -3 0 -7 -17 -7 -38 -1 -20 -5 -77 -9 -127 -12 -149 -7 -434 10 -545 11
-64 26 -169 31 -205 1 -11 3 -20 4 -20 1 0 3 -9 5 -20 2 -11 6 -31 9 -45 3
-14 8 -34 10 -45 3 -11 14 -51 25 -89 11 -37 20 -71 19 -75 -1 -6 7 -31 23
-66 5 -11 18 -47 29 -80 50 -142 168 -386 239 -495 9 -14 21 -32 26 -41 22
-36 114 -166 133 -189 12 -14 45 -54 74 -90 101 -125 303 -319 437 -420 18
-14 39 -30 46 -37 10 -10 129 -88 260 -170 39 -25 301 -151 365 -176 66 -26
101 -39 110 -42 3 -1 37 -12 75 -24 39 -13 95 -29 125 -37 30 -8 64 -17 75
-20 11 -3 29 -6 40 -8 11 -2 34 -6 50 -9 39 -8 81 -16 125 -22 19 -3 44 -7 55
-10 130 -26 580 -26 730 0 70 12 97 16 133 21 20 2 93 18 162 35 108 26 157
40 230 67 8 3 22 6 30 8 8 2 23 7 35 13 11 5 52 22 90 37 77 29 191 80 215 95
8 5 38 20 65 33 89 44 393 247 425 285 3 3 28 24 55 46 81 64 277 263 350 355
36 47 73 93 81 103 8 9 14 21 14 26 0 5 4 11 9 13 12 4 93 125 155 232 46 78
85 156 151 301 45 98 111 302 151 470 9 35 44 226 48 263 26 198 26 530 2 690
-3 18 -8 52 -11 75 -6 46 -21 128 -30 167 -3 14 -7 37 -10 52 -2 15 -6 32 -10
38 -3 6 -8 23 -11 38 -7 42 -76 256 -85 267 -5 5 -9 18 -9 30 0 12 -5 26 -11
32 -6 6 -12 17 -13 24 -8 41 -137 299 -148 299 -5 0 -7 4 -3 9 3 5 1 12 -5 16
-5 3 -17 23 -27 43 -9 20 -22 42 -28 48 -6 6 -34 48 -64 92 -29 45 -58 82 -64
82 -6 0 -8 3 -4 6 3 4 1 12 -6 19 -7 6 -23 27 -37 45 -14 18 -29 38 -35 44 -5
6 -34 40 -64 75 -57 66 -116 126 -211 213 -127 118 -158 142 -306 243 -33 22
-63 43 -69 48 -66 51 -450 247 -485 247 -5 0 -18 4 -28 9 -18 10 -50 22 -67
26 -5 2 -39 13 -75 25 -36 12 -69 23 -75 24 -5 2 -28 8 -50 14 -22 6 -54 14
-72 17 -18 3 -44 10 -59 15 -15 6 -29 9 -31 6 -3 -2 -18 0 -35 5 -17 4 -67 13
-112 19 -45 6 -94 13 -111 16 -16 3 -81 7 -144 9 -62 2 -116 6 -118 9 -3 3
-16 1 -30 -5 -13 -5 -22 -6 -20 -1 5 7 -61 11 -68 4z m211 -856 c55 -4 112 -9
125 -12 13 -2 43 -6 65 -8 23 -2 46 -6 51 -9 6 -4 40 -12 77 -19 36 -7 66 -15
66 -18 0 -3 11 -7 24 -8 22 -1 105 -28 161 -52 130 -54 155 -66 155 -72 0 -5
7 -8 17 -8 14 0 107 -53 123 -70 3 -3 12 -6 20 -8 8 -2 22 -10 31 -18 8 -8 20
-14 25 -14 5 0 23 -13 39 -28 17 -15 38 -31 48 -35 9 -3 17 -11 17 -17 0 -5 5
-10 11 -10 14 0 34 -18 164 -145 124 -122 173 -180 260 -310 63 -94 185 -327
185 -353 0 -7 4 -20 9 -30 9 -15 22 -49 26 -62 0 -3 6 -21 13 -41 7 -20 15
-46 17 -58 3 -11 7 -30 10 -42 2 -11 6 -28 9 -37 3 -9 7 -29 10 -45 3 -15 7
-35 10 -45 5 -19 15 -91 23 -172 12 -122 6 -366 -12 -460 -3 -14 -7 -38 -10
-55 -6 -40 -11 -61 -25 -115 -6 -25 -13 -55 -15 -67 -2 -12 -7 -28 -11 -35 -5
-7 -10 -22 -11 -33 -7 -43 -86 -235 -136 -325 -56 -103 -167 -264 -241 -349
-45 -53 -177 -182 -214 -211 -18 -14 -45 -35 -60 -48 -15 -13 -45 -36 -67 -50
-22 -15 -42 -29 -45 -32 -5 -5 -67 -45 -105 -67 -61 -36 -178 -93 -183 -88 -3
2 -10 -1 -16 -8 -6 -7 -38 -21 -71 -32 -33 -10 -64 -22 -70 -26 -10 -7 -109
-38 -144 -44 -9 -2 -16 -4 -16 -5 0 -1 -7 -3 -15 -5 -8 -1 -40 -8 -70 -14
-143 -29 -240 -37 -405 -35 -161 2 -281 11 -305 24 -8 4 -23 6 -32 5 -10 -2
-18 1 -18 6 0 6 -4 7 -10 4 -9 -6 -154 28 -195 45 -11 5 -38 14 -60 21 -22 7
-44 17 -49 21 -6 4 -20 8 -33 8 -13 0 -23 5 -23 10 0 6 -6 10 -13 10 -18 0
-242 114 -257 131 -3 3 -23 16 -45 29 -144 87 -341 269 -465 430 -19 25 -39
48 -45 52 -6 5 -6 8 0 8 6 0 5 4 -1 8 -14 9 -114 168 -114 181 0 5 -3 11 -7
13 -10 4 -92 172 -97 196 -1 9 -9 31 -15 47 -7 17 -14 35 -15 40 -2 6 -8 23
-14 38 -7 16 -12 35 -12 43 0 9 -4 23 -10 33 -5 10 -11 29 -13 42 -3 13 -10
43 -16 66 -6 23 -11 45 -10 50 1 4 -1 19 -4 33 -11 42 -17 91 -23 170 -7 97
-10 290 -5 295 2 3 5 24 6 47 9 147 61 365 124 525 30 77 84 187 96 195 5 4 7
8 3 8 -9 0 96 176 118 197 8 8 14 17 14 21 0 4 14 22 30 41 17 18 30 37 30 42
0 11 287 299 298 299 5 0 19 9 31 19 12 11 48 37 79 58 31 21 59 40 62 43 3 3
15 11 28 18 12 6 32 18 45 25 12 6 24 14 27 17 25 25 338 154 400 165 18 3 36
8 40 10 3 2 20 7 36 10 40 8 59 13 59 15 0 1 9 3 20 5 62 9 123 18 145 21 14
3 75 7 135 10 61 3 112 8 114 10 2 2 7 2 10 0 3 -2 51 -7 107 -10z"/>
</g>
</svg>
